<?xml version="1.0" standalone="no"?>
<!DOCTYPE svg PUBLIC "-//W3C//DTD SVG 20010904//EN"
 "http://www.w3.org/TR/2001/REC-SVG-20010904/DTD/svg10.dtd">
<svg version="1.0" xmlns="http://www.w3.org/2000/svg"
 width="512.000000pt" height="512.000000pt" viewBox="0 0 512.000000 512.000000"
 preserveAspectRatio="xMidYMid meet">

<g transform="translate(0.000000,512.000000) scale(0.100000,-0.100000)"
fill="#000000" stroke="none">
<path d="M2315 5041 c-173 -15 -192 -20 -241 -62 -25 -21 -55 -39 -67 -39 -47
0 -217 -42 -346 -85 -493 -165 -932 -514 -1249 -994 -76 -116 -186 -331 -235
-461 -101 -267 -144 -488 -154 -795 -21 -651 204 -1316 613 -1807 197 -237
684 -539 1004 -621 246 -64 543 -97 936 -104 563 -10 906 34 1215 157 465 186
769 466 989 915 208 422 314 931 315 1505 0 446 -58 725 -220 1055 -190 388
-487 712 -842 922 -468 275 -1215 455 -1718 414z m341 -355 c239 -13 614 -101
884 -208 126 -50 289 -136 410 -216 87 -57 149 -109 255 -216 286 -286 443
-589 517 -996 17 -96 21 -158 22 -375 1 -275 -8 -390 -50 -633 -67 -391 -179
-700 -345 -952 -76 -115 -252 -294 -358 -364 -231 -154 -485 -244 -811 -288
-152 -21 -854 -17 -1045 5 -285 34 -495 86 -645 162 -98 50 -290 166 -384 233
-226 163 -470 523 -591 872 -103 299 -140 511 -140 820 0 253 13 357 70 564
156 569 581 1082 1110 1341 218 106 421 159 675 176 141 10 171 15 206 35 22
12 46 30 53 38 8 9 23 14 39 11 15 -2 73 -6 128 -9z"/>
<path d="M1742 3224 c-198 -96 -174 -384 37 -459 58 -20 100 -19 164 5 97 37
159 126 159 231 0 188 -190 305 -360 223z"/>
<path d="M3245 3226 c-204 -95 -184 -385 32 -462 113 -40 244 17 297 130 100
211 -117 431 -329 332z"/>
<path d="M1866 1859 c-151 -36 -185 -230 -54 -316 l42 -28 695 -3 c482 -2 710
1 740 8 61 15 100 45 122 94 39 86 11 176 -69 224 l-47 27 -695 2 c-396 1
-712 -3 -734 -8z"/>
</g>
</svg>
