<?xml version="1.0" standalone="no"?>
<svg viewBox="0 0 200 200" xmlns="http://www.w3.org/2000/svg">
  <path fill="#8A3FFC" d="M36.2,-63.2C50.2,-54.6,67,-51.5,75.5,-41.9C84,-32.2,84.2,-16.1,79.5,-2.7C74.8,10.7,65.2,21.4,58.7,34.5C52.2,47.5,48.7,62.9,39.4,71.5C30.2,80,15.1,81.6,1.1,79.6C-12.8,77.6,-25.6,72.1,-33.9,63C-42.2,53.9,-46.1,41.4,-54.1,30.3C-62.1,19.2,-74.2,9.6,-80.2,-3.5C-86.2,-16.6,-86.2,-33.1,-79.6,-46.6C-73,-60.1,-59.9,-70.6,-45.5,-78.9C-31.2,-87.3,-15.6,-93.6,-2.2,-89.7C11.1,-85.8,22.2,-71.8,36.2,-63.2Z" transform="translate(100 100)" />
</svg>
